External Loads File
version=1
nRows=61
nColumns=13
Range=5.000000e-03-10 seconds
endheader
time 	forceRightX 	forceRightY 	forceRightZ 	pointRightX 	pointRightY 	pointRightZ 	forceLeftX 	forceLeftY 	forceLeftZ 	pointLeftX 	pointLeftY 	pointLeftZ 		
2.505000 -472.607665 898.070065 -0.000000 0.399104 0.386955 -0.112281 61.808930 -30.815852 -0.000000 0.146234 0.264727 -0.355619
2.510000 -475.583196 910.408514 -0.000000 0.401625 0.378868 -0.112249 62.571325 -27.346824 -0.000000 0.143589 0.272517 -0.355421
2.515000 -475.307572 926.030013 -0.000000 0.403962 0.370730 -0.112268 63.647968 -24.086813 -0.000000 0.141281 0.280528 -0.355231
2.520000 -470.216342 945.353883 -0.000000 0.406124 0.362304 -0.112293 64.947488 -21.322174 -0.000000 0.139223 0.288828 -0.355184
2.525000 -461.542866 967.043490 -0.000000 0.407849 0.353860 -0.112184 66.386018 -19.066685 -0.000000 0.137522 0.297290 -0.355100
2.530000 -448.924220 990.459752 -0.000000 0.409166 0.345332 -0.111856 67.798856 -17.371609 -0.000000 0.136169 0.305873 -0.355017
2.535000 -434.085271 1014.087323 -0.000000 0.410145 0.337160 -0.111723 69.052338 -16.115134 -0.000000 0.135173 0.314537 -0.354844
2.540000 -413.538438 1038.775328 -0.000000 0.410787 0.328354 -0.111590 69.957593 -15.552237 -0.000000 0.134450 0.323291 -0.354686
2.545000 -391.050256 1062.356294 -0.000000 0.411337 0.319827 -0.112135 70.485319 -15.519175 -0.000000 0.134163 0.332130 -0.354609
2.550000 -366.305705 1084.561886 -0.000000 0.411330 0.311393 -0.111997 70.556840 -16.226670 -0.000000 0.134376 0.341020 -0.354720
2.555000 -339.955235 1104.907942 -0.000000 0.410915 0.303015 -0.111899 70.102916 -17.878648 -0.000000 0.134802 0.349872 -0.354797
2.560000 -311.774127 1123.386458 -0.000000 0.410426 0.294801 -0.112303 69.045531 -20.739277 -0.000000 0.135621 0.359038 -0.354842
2.565000 -283.363013 1139.645345 -0.000000 0.408793 0.286737 -0.111463 67.364510 -24.930775 -0.000000 0.137141 0.367861 -0.354753
2.570000 -256.297226 1153.584529 -0.000000 0.407584 0.278679 -0.110597 65.087120 -30.533018 -0.000000 0.138743 0.376517 -0.354817
2.575000 -228.714905 1165.902692 -0.000000 0.405422 0.270825 -0.111014 62.182799 -37.735297 -0.000000 0.140741 0.385247 -0.354912
2.580000 -202.808696 1176.268377 -0.000000 0.403243 0.263104 -0.110942 58.746050 -46.369011 -0.000000 0.143088 0.393785 -0.354966
2.585000 -178.009565 1184.767151 -0.000000 0.400778 0.255524 -0.110866 54.824496 -56.263752 -0.000000 0.145769 0.402169 -0.354924
2.590000 -153.791177 1191.223512 -0.000000 0.397923 0.248070 -0.110750 50.490761 -67.090833 -0.000000 0.148716 0.410429 -0.354976
2.595000 -129.972585 1195.222313 -0.000000 0.394723 0.240821 -0.110649 45.849639 -78.398506 -0.000000 0.152085 0.418525 -0.355068
2.600000 -105.714589 1196.294994 -0.000000 0.391197 0.233792 -0.110623 40.938085 -89.691771 -0.000000 0.156254 0.426343 -0.354881
2.605000 -82.650739 1193.713333 -0.000000 0.387325 0.226794 -0.110412 35.925531 -100.337816 -0.000000 0.160200 0.433908 -0.354891
2.610000 -57.414895 1187.177890 -0.000000 0.383137 0.220091 -0.110323 30.526627 -109.829667 -0.000000 0.165485 0.441227 -0.357092
2.615000 -40.175398 1175.820640 -0.000000 0.378644 0.213730 -0.110204 25.680076 -117.317827 -0.000000 0.168780 0.447982 -0.356938
2.620000 -18.340014 1159.956621 -0.000000 0.373804 0.207696 -0.110175 20.192936 -122.573554 -0.000000 0.174061 0.454680 -0.357686
2.625000 0.611825 1139.200114 -0.000000 0.368771 0.202085 -0.110072 14.805894 -124.995026 -0.000000 0.179142 0.461025 -0.357530
2.630000 20.513991 1113.598596 -0.000000 0.363484 0.196714 -0.110019 9.099630 -124.360001 -0.000000 0.185055 0.467123 -0.357663
2.635000 37.493789 1083.341177 -0.000000 0.357959 0.191703 -0.109956 3.465288 -120.514920 -0.000000 0.190584 0.472878 -0.357802
2.640000 55.371258 1048.653407 -0.000000 0.352148 0.187002 -0.109941 -2.565103 -113.531899 -0.000000 0.196695 0.478735 -0.357650
2.645000 69.702366 1010.255851 -0.000000 0.346152 0.182796 -0.109855 -8.554734 -103.630392 -0.000000 0.202489 0.483643 -0.357667
2.650000 85.107603 968.508097 -0.000000 0.339832 0.178923 -0.109792 -15.045351 -91.147117 -0.000000 0.208958 0.488268 -0.357736
2.655000 100.281906 924.087261 -0.000000 0.333279 0.175467 -0.109675 -21.929554 -76.504042 -0.000000 0.215751 0.492599 -0.357814
2.660000 114.336700 877.664820 -0.000000 0.326516 0.172372 -0.109534 -29.150505 -60.171582 -0.000000 0.222604 0.496450 -0.357875
2.665000 127.569613 829.704061 -0.000000 0.319508 0.169604 -0.109384 -36.709170 -42.631650 -0.000000 0.229570 0.499955 -0.357943
2.670000 139.485949 780.678802 -0.000000 0.312382 0.167309 -0.109228 -44.493088 -24.447444 -0.000000 0.236690 0.502979 -0.357572
2.675000 150.388728 730.952245 -0.000000 0.304910 0.165344 -0.108944 -52.381472 -6.184247 -0.000000 0.243808 0.505597 -0.357693
2.680000 159.412347 681.163913 -0.000000 0.297609 0.163829 -0.108860 -60.226713 11.523442 -0.000000 0.251001 0.507639 -0.357564
2.685000 167.580195 631.410156 -0.000000 0.290242 0.162648 -0.108808 -67.923796 28.264883 -0.000000 0.258350 0.509177 -0.357599
2.690000 174.745280 581.717361 -0.000000 0.282661 0.162014 -0.108633 -75.410159 43.728894 -0.000000 0.265548 0.510146 -0.357627
2.695000 181.212002 531.771302 -0.000000 0.275004 0.161880 -0.108426 -82.667743 57.925049 -0.000000 0.272848 0.510305 -0.358295
2.700000 186.517606 481.475779 -0.000000 0.267320 0.162188 -0.108257 -89.801200 71.071318 -0.000000 0.280025 0.509611 -0.358295
2.705000 190.482961 430.804914 -0.000000 0.259662 0.163134 -0.108087 -96.922653 83.681980 -0.000000 0.287127 0.508969 -0.358142
2.710000 192.418945 380.217503 -0.000000 0.252087 0.164427 -0.108012 -104.246042 96.279599 -0.000000 0.293898 0.508843 -0.358328
2.715000 193.054205 329.766128 -0.000000 0.244549 0.166357 -0.107925 -111.687373 109.752484 -0.000000 0.300758 0.506982 -0.358459
2.720000 191.847588 280.323662 -0.000000 0.237067 0.168837 -0.107823 -119.527854 124.659787 -0.000000 0.307499 0.504940 -0.358460
2.725000 188.681864 232.769272 -0.000000 0.229801 0.171594 -0.107786 -128.124791 141.623964 -0.000000 0.313989 0.502051 -0.358485
2.730000 183.912619 187.726071 -0.000000 0.222698 0.174849 -0.107757 -137.669772 161.461067 -0.000000 0.320410 0.498385 -0.358645
2.735000 177.690839 145.970218 -0.000000 0.215775 0.178601 -0.107752 -148.437086 184.796554 -0.000000 0.326588 0.493735 -0.358708
2.740000 170.237696 108.246197 -0.000000 0.209046 0.182595 -0.107721 -160.753262 212.006160 -0.000000 0.332615 0.489033 -0.358882
2.745000 162.091932 74.801625 -0.000000 0.202411 0.187088 -0.107629 -174.516652 243.497785 -0.000000 0.338380 0.483822 -0.359083
2.750000 153.648511 45.920988 -0.000000 0.196017 0.191864 -0.107660 -189.860376 279.136096 -0.000000 0.343958 0.478594 -0.359290
2.755000 145.442314 21.032774 -0.000000 0.189772 0.197168 -0.107731 -205.659287 319.282231 -0.000000 0.349703 0.472375 -0.359262
2.760000 137.610058 0.248631 -0.000000 0.183695 0.202768 -0.107835 -222.165923 363.033924 -0.000000 0.355141 0.465832 -0.359398
2.765000 130.313675 -16.933656 -0.000000 0.177841 0.208830 -0.107881 -238.460544 409.989036 -0.000000 0.360524 0.458810 -0.359620
2.770000 123.594718 -30.798674 -0.000000 0.172102 0.215297 -0.107921 -253.950175 459.288102 -0.000000 0.365734 0.451451 -0.359761
2.775000 117.495870 -41.500408 -0.000000 0.166690 0.222055 -0.107969 -268.525091 509.644298 -0.000000 0.370862 0.444130 -0.359815
2.780000 111.911181 -49.536624 -0.000000 0.161592 0.229118 -0.107966 -280.646130 560.446647 -0.000000 0.375870 0.436108 -0.359826
2.785000 106.811325 -55.042415 -0.000000 0.156689 0.236527 -0.108011 -290.221295 610.325269 -0.000000 0.380548 0.427928 -0.359511
2.790000 102.153301 -58.217468 -0.000000 0.152183 0.244084 -0.108026 -297.120447 658.124465 -0.000000 0.385055 0.419620 -0.359463
2.795000 97.834229 -59.402069 -0.000000 0.147989 0.251997 -0.108075 -300.550795 703.245537 -0.000000 0.389161 0.411008 -0.359381
2.800000 93.827121 -58.863869 -0.000000 0.144257 0.260173 -0.108007 -300.585298 744.986861 -0.000000 0.393024 0.402150 -0.359346
2.805000 90.034991 -57.027635 -0.000000 0.140207 0.268523 -0.108475 -296.692275 783.203690 -0.000000 0.396631 0.393064 -0.359246
